<svg width="40" height="40" viewBox="0 0 40 40" fill="none" xmlns="http://www.w3.org/2000/svg">
<circle cx="20" cy="20" r="20" fill="#1F305E" fill-opacity="0.18"/>
<path d="M26.4622 21.2711C26.6564 21.1016 26.9045 20.994 27.1562 21.0498C28.6181 21.3739 31.5167 23.267 31.9835 26.277C32.5285 29.7918 25.5029 33.0001 20.0028 33.0001C14.5026 33.0001 7.47702 29.7918 8.02206 26.277C8.48868 23.268 11.3873 21.3743 12.8484 21.0499C13.1 20.9941 13.3482 21.1017 13.5425 21.2711C15.2706 22.7789 17.5975 23.6067 20.0028 23.6067C22.4079 23.6066 24.7342 22.7787 26.4622 21.2711Z" fill="white"/>
<path d="M27 15.0418C27 18.6316 23.866 21.0001 20 21.0001C16.134 21.0001 13 18.6316 13 15.0418C13 11.4519 16.134 8.00012 20 8.00012C23.866 8.00012 27 11.4519 27 15.0418Z" fill="white"/>
<circle cx="20" cy="20" r="19.5" stroke="#1F305E" stroke-opacity="0.18"/>
</svg>
