<svg width="21" height="21" viewBox="0 0 21 21" fill="none" xmlns="http://www.w3.org/2000/svg">
<circle cx="10.5" cy="10.5" r="10.5" fill="#1F305E" fill-opacity="0.32"/>
<path d="M9.04545 13.5114V13.3182C9.04924 12.6553 9.10795 12.1269 9.22159 11.733C9.33902 11.339 9.50947 11.0208 9.73295 10.7784C9.95644 10.536 10.2254 10.3163 10.5398 10.1193C10.7746 9.9678 10.9848 9.81061 11.1705 9.64773C11.3561 9.48485 11.5038 9.30492 11.6136 9.10795C11.7235 8.9072 11.7784 8.68371 11.7784 8.4375C11.7784 8.17614 11.7159 7.94697 11.5909 7.75C11.4659 7.55303 11.2973 7.40151 11.0852 7.29545C10.8769 7.18939 10.6458 7.13636 10.392 7.13636C10.1458 7.13636 9.91288 7.19129 9.69318 7.30114C9.47348 7.4072 9.29356 7.56629 9.15341 7.77841C9.01326 7.98674 8.9375 8.24621 8.92614 8.55682H6.60795C6.62689 7.79924 6.80871 7.17424 7.15341 6.68182C7.49811 6.18561 7.95455 5.81629 8.52273 5.57386C9.09091 5.32765 9.7178 5.20455 10.4034 5.20455C11.1572 5.20455 11.8239 5.32955 12.4034 5.57955C12.983 5.82576 13.4375 6.18371 13.767 6.65341C14.0966 7.12311 14.2614 7.68939 14.2614 8.35227C14.2614 8.79545 14.1875 9.18939 14.0398 9.53409C13.8958 9.875 13.6932 10.178 13.4318 10.4432C13.1705 10.7045 12.8617 10.9413 12.5057 11.1534C12.2064 11.3314 11.9602 11.517 11.767 11.7102C11.5777 11.9034 11.4356 12.1269 11.3409 12.3807C11.25 12.6345 11.2027 12.947 11.1989 13.3182V13.5114H9.04545ZM10.1705 17.1477C9.79167 17.1477 9.4678 17.0152 9.19886 16.75C8.93371 16.4811 8.80303 16.1591 8.80682 15.7841C8.80303 15.4129 8.93371 15.0947 9.19886 14.8295C9.4678 14.5644 9.79167 14.4318 10.1705 14.4318C10.5303 14.4318 10.8466 14.5644 11.1193 14.8295C11.392 15.0947 11.5303 15.4129 11.5341 15.7841C11.5303 16.0341 11.464 16.2633 11.3352 16.4716C11.2102 16.6761 11.0455 16.8409 10.8409 16.9659C10.6364 17.0871 10.4129 17.1477 10.1705 17.1477Z" fill="white"/>
</svg>
