<svg width="16" height="16" viewBox="0 0 16 16" fill="none" xmlns="http://www.w3.org/2000/svg">
<path d="M12.2197 2.38672C12.6022 2.00405 13.223 2.00403 13.6055 2.38672C13.9878 2.76929 13.9876 3.38982 13.6055 3.77246L9.38477 7.99512L13.6133 12.2275C13.9955 12.6102 13.9956 13.2307 13.6133 13.6133C13.2308 13.9959 12.61 13.996 12.2275 13.6133L8 9.38184L3.77246 13.6133C3.39 13.996 2.76924 13.9959 2.38672 13.6133C2.0044 13.2307 2.00446 12.6102 2.38672 12.2275L6.61426 7.99512L2.39453 3.77246C2.01237 3.38982 2.01224 2.76929 2.39453 2.38672C2.77702 2.00403 3.39778 2.00404 3.78027 2.38672L8 6.60938L12.2197 2.38672Z" fill="#1F305E" stroke="#1F305E" stroke-width="0.8"/>
</svg>
