<svg width="12" height="15" viewBox="0 0 12 15" fill="none" xmlns="http://www.w3.org/2000/svg">
<path d="M10.998 3.60156C11.5502 3.60177 11.998 4.04941 11.998 4.60156V13.4014C11.998 13.9535 11.5502 14.4012 10.998 14.4014H4.59766C4.04537 14.4014 3.59766 13.9537 3.59766 13.4014V12.001H7.19727C8.52257 12.0008 9.59668 10.9259 9.59668 9.60059V3.60156H10.998ZM7.40039 0C7.9525 0.000211335 8.40039 0.447846 8.40039 1V9.7998C8.40039 10.352 7.9525 10.7996 7.40039 10.7998H7.21777L7.19727 10.8008H3.59766V10.7998H1C0.447715 10.7998 0 10.3521 0 9.7998V1C7.31115e-07 0.447716 0.447716 1.0891e-08 1 0H7.40039Z" fill="#1F305E" fill-opacity="0.28"/>
</svg>
