<svg width="140" height="173" viewBox="0 0 140 173" fill="none" xmlns="http://www.w3.org/2000/svg">
<path d="M90.5333 146.53C92.0797 146.53 93.3333 147.8 93.3333 149.366C93.3332 162.419 82.8865 173 70 173C57.1135 173 46.6669 162.419 46.6667 149.366C46.6667 147.8 47.9203 146.53 49.4667 146.53H90.5333Z" fill="#E4E6EB"/>
<path d="M70 0C79.2784 -4.10795e-07 86.8 7.6185 86.8 17.0164C86.8 19.687 88.5253 22.0175 90.9699 23.0181C111.509 31.425 126 51.8125 126 75.6284V98.95C126 103.63 128.815 107.728 132.169 110.946C136.992 115.574 140 122.122 140 129.382C140 133.631 136.599 137.077 132.403 137.077H7.59701C3.40144 137.077 0.000142952 133.631 0 129.382C0 122.122 3.00831 115.574 7.831 110.946C11.1853 107.728 14 103.63 14 98.95V75.6284C14 51.8125 28.4914 31.425 49.0301 23.0181C51.4747 22.0175 53.2 19.687 53.2 17.0164C53.2 7.6185 60.7216 1.26957e-06 70 0Z" fill="#E4E6EB"/>
</svg>
