<svg width="23" height="23" viewBox="0 0 23 23" fill="none" xmlns="http://www.w3.org/2000/svg">
<path d="M18.3782 0.254517H4.37709C3.32277 0.255706 2.31197 0.67506 1.56645 1.42058C0.820934 2.1661 0.40158 3.17689 0.400391 4.23121V21.3502C0.400395 21.5596 0.457579 21.7651 0.565777 21.9445C0.673976 22.1239 0.829084 22.2703 1.01438 22.368C1.19967 22.4657 1.40812 22.511 1.61725 22.4989C1.82637 22.4869 2.02825 22.418 2.2011 22.2997L6.77074 19.1714H18.3782C19.4325 19.1702 20.4433 18.7509 21.1889 18.0054C21.9344 17.2599 22.3537 16.2491 22.3549 15.1948V4.23121C22.3537 3.17689 21.9344 2.1661 21.1889 1.42058C20.4434 0.67506 19.4326 0.255706 18.3782 0.254517ZM20.0536 15.1948C20.0531 15.639 19.8764 16.0648 19.5623 16.3788C19.2482 16.6929 18.8224 16.8696 18.3782 16.87H6.41465C6.18265 16.8701 5.95608 16.9402 5.76464 17.0712L2.70176 19.168V4.23121C2.70225 3.78704 2.87892 3.3612 3.193 3.04712C3.50708 2.73305 3.93291 2.55638 4.37709 2.55588H18.3782C18.8224 2.55638 19.2483 2.73304 19.5623 3.04712C19.8764 3.3612 20.0531 3.78704 20.0536 4.23121V15.1948Z" fill="#A5CB37"/>
<path d="M16.1673 6.01831H6.57841C6.27323 6.01831 5.98055 6.13954 5.76476 6.35534C5.54897 6.57113 5.42773 6.86381 5.42773 7.16899C5.42773 7.47416 5.54897 7.76684 5.76476 7.98264C5.98055 8.19843 6.27323 8.31966 6.57841 8.31966H16.1673C16.4725 8.31966 16.7651 8.19843 16.9809 7.98264C17.1967 7.76684 17.318 7.47416 17.318 7.16899C17.318 6.86381 17.1967 6.57113 16.9809 6.35534C16.7651 6.13954 16.4725 6.01831 16.1673 6.01831Z" fill="#A5CB37"/>
<path d="M11.3728 10.0188H6.57841C6.27323 10.0188 5.98055 10.14 5.76476 10.3558C5.54897 10.5716 5.42773 10.8643 5.42773 11.1695C5.42773 11.4747 5.54897 11.7673 5.76476 11.9831C5.98055 12.1989 6.27323 12.3201 6.57841 12.3201H11.3728C11.6779 12.3201 11.9706 12.1989 12.1864 11.9831C12.4022 11.7673 12.5234 11.4747 12.5234 11.1695C12.5234 10.8643 12.4022 10.5716 12.1864 10.3558C11.9706 10.14 11.6779 10.0188 11.3728 10.0188Z" fill="#A5CB37"/>
</svg>
