<svg width="20" height="24" viewBox="0 0 20 24" fill="none" xmlns="http://www.w3.org/2000/svg">
<path d="M19.5607 19.4918C18.5042 18.3149 16.2333 15.7848 14.9281 14.3288C14.7741 14.1571 14.5682 14.0404 14.3418 13.9962C14.1154 13.9521 13.8807 13.9831 13.6735 14.0844L11.3843 15.2042C9.98932 13.7188 9.18083 12.6493 7.78158 10.001L9.58335 8.19968C9.74649 8.0366 9.85191 7.82475 9.88358 7.59631C9.91525 7.36788 9.87143 7.13535 9.7588 6.93408C8.80396 5.22802 7.14579 2.26056 6.37447 0.879626C6.24509 0.64558 6.06237 0.445291 5.84112 0.294991C5.61986 0.144691 5.36629 0.0486064 5.10096 0.0145242C4.83461 -0.0201724 4.56385 0.007499 4.31004 0.0953532C4.05622 0.183207 3.82632 0.328839 3.63848 0.520747C2.94575 1.23002 -0.482455 4.9296 0.057402 8.10937C0.909927 13.3216 4.60478 20.1004 10.9321 23.4919C11.6055 23.8416 12.3563 24.016 13.115 23.9988C15.2376 23.9987 17.5325 22.9025 18.8119 22.2913L19.0134 22.1953C19.2558 22.081 19.4681 21.9117 19.6335 21.7008C19.7989 21.49 19.9127 21.2434 19.9658 20.9809C20.019 20.7183 20.01 20.4469 19.9397 20.1884C19.8693 19.9299 19.7395 19.6913 19.5607 19.4918ZM11.9391 21.6287C6.24228 18.5752 2.91687 12.4668 2.14725 7.76139C1.88713 6.22936 3.47393 3.85319 4.79084 2.38866C5.51359 3.68241 6.66547 5.74367 7.51856 7.26875L5.73399 9.05282C5.57529 9.21146 5.4711 9.4164 5.43646 9.63806C5.40181 9.85972 5.43849 10.0867 5.54122 10.2861C7.47084 14.033 8.40316 15.1665 10.3887 17.2305C10.5442 17.3921 10.747 17.5002 10.9679 17.5392C11.1889 17.5783 11.4165 17.5462 11.618 17.4476L13.8851 16.3386C15.0552 17.6433 16.6384 19.4073 17.6277 20.5094C16.199 21.186 13.4051 22.4261 11.9391 21.6287Z" fill="#A5CB37"/>
</svg>
