<svg width="21" height="21" viewBox="0 0 21 21" fill="none" xmlns="http://www.w3.org/2000/svg">
<path d="M20.6931 19.2112L16.773 15.2906C18.2742 13.4099 18.9984 11.0258 18.797 8.62779C18.5955 6.22978 17.4837 3.99991 15.6898 2.39608C13.8959 0.792255 11.5561 -0.0638005 9.15088 0.00370974C6.74564 0.07122 4.45753 1.05717 2.7564 2.7591C1.05528 4.46103 0.0702565 6.74975 0.00361526 9.15528C-0.063026 11.5608 0.793771 13.9006 2.39806 15.6941C4.00235 17.4876 6.23237 18.5988 8.63018 18.7994C11.028 19 13.4116 18.2748 15.2915 16.7728L19.2114 20.6931C19.3087 20.7904 19.4242 20.8676 19.5513 20.9202C19.6784 20.9729 19.8147 21 19.9523 21C20.0899 21 20.2261 20.9729 20.3532 20.9202C20.4803 20.8676 20.5958 20.7904 20.6931 20.6931C20.7904 20.5958 20.8676 20.4803 20.9202 20.3531C20.9729 20.226 21 20.0898 21 19.9521C21 19.8145 20.9729 19.6783 20.9202 19.5512C20.8676 19.424 20.7904 19.3085 20.6931 19.2112ZM4.23919 14.5919C3.04159 13.3941 2.29632 11.8181 2.13034 10.1324C1.96437 8.44661 2.38797 6.75547 3.32897 5.34707C4.26997 3.93867 5.67014 2.90016 7.29092 2.40847C8.9117 1.91679 10.6528 2.00236 12.2176 2.65061C13.7823 3.29885 15.0739 4.46966 15.8723 5.96355C16.6707 7.45744 16.9265 9.18197 16.596 10.8433C16.2656 12.5047 15.3694 14 14.0602 15.0746C12.7509 16.1492 11.1096 16.7365 9.41591 16.7365C7.47443 16.7356 5.61264 15.9643 4.23919 14.5919Z" fill="#A5CB37"/>
</svg>
