<svg width="21" height="23" viewBox="0 0 21 23" fill="none" xmlns="http://www.w3.org/2000/svg">
<path d="M14.6894 12.7698C15.9888 11.923 16.9682 10.7048 17.4844 9.29314C18.0006 7.88147 18.0266 6.35041 17.5586 4.92374C17.0905 3.49708 16.153 2.24964 14.883 1.36375C13.6131 0.477869 12.0772 0 10.5 0C8.92284 0 7.38701 0.477869 6.11703 1.36375C4.84705 2.24964 3.90952 3.49708 3.44148 4.92374C2.97344 6.35041 2.99943 7.88147 3.51566 9.29314C4.0319 10.7048 5.01129 11.923 6.31069 12.7698C4.43694 13.5439 2.84206 14.8186 1.72124 16.4379C0.600418 18.0573 0.00227053 19.951 0 21.8873C1.02343e-05 22.1824 0.123776 22.4654 0.344072 22.6741C0.564368 22.8828 0.86315 23 1.17469 23H19.8253C20.1369 23 20.4356 22.8828 20.6559 22.6741C20.8762 22.4654 21 22.1824 21 21.8873C20.9977 19.951 20.3996 18.0573 19.2788 16.4379C18.158 14.8186 16.5631 13.5439 14.6894 12.7698ZM10.5 2.2297C11.4973 2.2297 12.4721 2.50981 13.3013 3.03461C14.1305 3.55941 14.7768 4.30533 15.1584 5.17804C15.54 6.05075 15.6399 7.01106 15.4453 7.93753C15.2508 8.864 14.7706 9.71502 14.0654 10.383C13.3603 11.0509 12.4619 11.5058 11.4838 11.6901C10.5057 11.8744 9.49189 11.7798 8.57055 11.4183C7.64922 11.0569 6.86173 10.4447 6.30768 9.6593C5.75363 8.87389 5.4579 7.95049 5.45789 7.00587C5.45937 5.73959 5.99107 4.52558 6.93633 3.63018C7.8816 2.73478 9.16323 2.23112 10.5 2.2297ZM2.43379 20.7746C2.71618 18.9391 3.68671 17.2612 5.16786 16.0479C6.64901 14.8345 8.54179 14.1668 10.5 14.1668C12.4582 14.1668 14.351 14.8345 15.8322 16.0479C17.3133 17.2612 18.2838 18.9391 18.5662 20.7746H2.43379Z" fill="#A5CB37"/>
</svg>
