<svg width="52" height="52" viewBox="0 0 52 52" fill="none" xmlns="http://www.w3.org/2000/svg">
<rect x="1" y="1" width="50" height="50" rx="11" stroke="#1F305E" stroke-width="2"/>
<path d="M34.3062 12.4646C35.0997 11.7845 36.283 11.8299 37.022 12.5689L39.4399 14.9867C40.1788 15.7257 40.2243 16.9091 39.5442 17.7025L27.0438 32.2863C26.2856 33.1709 24.9348 33.2228 24.1111 32.399L19.6098 27.8977C18.786 27.0739 18.8379 25.7232 19.7224 24.965L34.3062 12.4646Z" fill="#1F305E"/>
<path d="M14.8296 30.0346C15.1429 28.4682 17.0755 27.8831 18.205 29.0126L22.9942 33.8018C24.1237 34.9313 23.5386 36.8639 21.9722 37.1772L15.9857 38.3745C14.5863 38.6544 13.3524 37.4205 13.6323 36.0211L14.8296 30.0346Z" fill="#1F305E"/>
</svg>
