<svg width="180" height="180" viewBox="0 0 180 180" fill="none" xmlns="http://www.w3.org/2000/svg">
<rect width="180" height="180" rx="12" fill="#E4E6EB"/>
<path d="M122.145 93.0678C123.097 92.2406 124.313 91.7154 125.547 91.9877C132.714 93.5694 146.925 102.81 149.213 117.503C151.885 134.659 117.442 147.447 90.4767 147.447C63.5116 147.447 29.0681 134.659 31.7402 117.503C34.0279 102.815 48.2384 93.5715 55.4018 91.9881C56.6355 91.7154 57.8523 92.2407 58.8045 93.0679C67.2767 100.428 78.6845 104.468 90.4767 104.468C102.268 104.468 113.673 100.427 122.145 93.0678Z" fill="white"/>
<path d="M124.467 62.5137C124.467 80.2279 109.249 91.9153 90.4776 91.9153C71.7058 91.9153 56.4883 80.2279 56.4883 62.5137C56.4883 44.7995 71.7058 27.7664 90.4776 27.7664C109.249 27.7664 124.467 44.7995 124.467 62.5137Z" fill="white"/>
</svg>
