<svg width="118" height="120" viewBox="0 0 118 120" fill="none" xmlns="http://www.w3.org/2000/svg">
<path d="M90.5508 65.3015C91.503 64.4744 92.7196 63.9492 93.9534 64.2215C101.12 65.8032 115.331 75.0437 117.62 89.7363C120.292 106.893 85.8481 119.681 58.883 119.681C31.9179 119.681 -2.52568 106.893 0.146433 89.7363C2.43411 75.0486 16.6446 65.8053 23.808 64.2219C25.0417 63.9492 26.2585 64.4744 27.2108 65.3017C35.6829 72.6614 47.0908 76.702 58.883 76.702C70.6742 76.7018 82.0792 72.6604 90.5508 65.3015Z" fill="white"/>
<path d="M92.8733 34.7475C92.8733 52.4617 77.6557 64.1491 58.8839 64.1491C40.1121 64.1491 24.8945 52.4617 24.8945 34.7475C24.8945 17.0332 40.1121 0.00012207 58.8839 0.00012207C77.6557 0.00012207 92.8733 17.0332 92.8733 34.7475Z" fill="white"/>
</svg>
