<svg width="248" height="282" viewBox="0 0 248 282" fill="none" xmlns="http://www.w3.org/2000/svg">
<circle cx="124" cy="157.751" r="124" fill="#CEE1E5"/>
<mask id="mask0_417_7850" style="mask-type:alpha" maskUnits="userSpaceOnUse" x="0" y="34" width="248" height="248">
<circle cx="123.68" cy="158.072" r="123.68" fill="#75AD14"/>
</mask>
<g mask="url(#mask0_417_7850)">
<path d="M22.4883 42.7951V42.5421C22.5257 42.4011 22.5729 42.262 22.599 42.1189C22.9466 40.2175 23.7665 38.5572 25.2019 37.2603C26.8382 35.7819 28.8452 35.058 30.9555 34.5818C31.7962 34.3993 32.6501 34.2845 33.509 34.2386C33.8569 34.2171 34.2717 33.913 33.979 33.6816C33.4613 33.2862 33.0259 32.7925 32.6975 32.2286C32.651 32.1478 32.422 32.1838 32.4701 32.0028C32.5096 31.854 32.668 31.8648 32.7864 31.8751C33.527 31.9392 33.8443 31.4902 34.0102 30.8623C34.0853 30.5779 34.1538 30.2903 34.2016 30.0002C34.5613 27.8184 35.5166 25.9799 37.2383 24.5614C37.8701 24.0408 38.4488 23.4556 39.0707 22.9224C39.6959 22.3907 40.4012 21.9621 41.1602 21.6526C42.9148 20.9257 44.6908 21.0115 46.4543 21.5662C47.4144 21.8682 48.2571 21.7639 49.0769 21.1902C49.3824 20.9764 49.7295 20.7608 50.0851 20.6939C50.7864 20.5572 51.4369 20.2298 51.9657 19.7473C52.3036 19.4529 52.7421 19.2994 53.1244 19.5839C53.787 20.077 54.5539 20.2693 55.3123 20.5055C55.7526 20.6426 56.1578 20.852 56.1996 21.3698C56.2402 21.8726 56.555 21.9991 56.9581 22.0388C57.9386 22.1353 58.9197 22.2286 59.9017 22.3081C60.7522 22.377 61.5973 22.5099 62.2267 23.1317C63.4246 24.3151 64.4319 25.6628 64.6516 27.38C64.9493 29.7065 65.8952 31.8187 66.6234 34.0045C66.7358 34.3421 66.8915 34.7207 67.3242 34.7197C68.0148 34.7183 68.5615 35.041 69.1248 35.3788C69.7763 35.7696 70.16 35.6773 70.6604 35.0893C70.7694 34.9613 70.866 34.8226 70.9722 34.6922C71.5087 34.0334 72.1941 34.0551 72.6916 34.7453C73.3662 35.6813 73.4477 35.6992 74.4375 35.0769C74.6679 34.932 74.8893 34.7708 75.1048 34.6039C76.7193 33.3533 78.2031 31.9528 79.6767 30.5428C85.5119 24.9592 91.1876 19.2127 96.8989 13.5025C97.6715 12.7301 98.4686 11.9769 99.3045 11.2751C104.024 7.31298 109.345 4.42227 115.145 2.41136C116.967 1.77957 118.822 1.12563 120.783 1.32151C122.156 1.45865 123.396 1.2557 124.706 0.821906C128.131 -0.311614 131.659 -0.0709226 135.176 0.35083C136.701 0.533693 138.196 1.09662 139.771 0.659287C140.078 0.574107 140.445 0.639344 140.771 0.703111C141.7 0.864871 142.642 0.950127 143.585 0.958035C146.51 1.04586 149.397 1.3478 152.153 2.44393C154.337 3.31254 156.571 4.05161 158.873 4.51704C160.101 4.76535 161.137 5.59877 162.436 5.58746C162.687 5.58527 162.924 5.76314 163.075 5.96025C163.378 6.35428 163.797 6.51028 164.242 6.64854C167.583 7.6875 170.924 8.72809 174.264 9.77031C174.823 9.94387 175.384 10.0761 175.726 10.6417C175.833 10.8189 176.085 10.9336 176.294 11.0189C178.99 12.1391 181.529 13.6074 183.847 15.3868C184.455 15.8462 185.115 16.2576 185.892 16.2886C186.619 16.3176 187.045 16.7069 187.395 17.2654C187.608 17.6039 187.828 17.9381 188.029 18.2833C188.368 18.8658 188.8 19.3231 189.472 19.5191C189.885 19.6298 190.238 19.8979 190.457 20.2664C190.778 20.8295 191.261 21.2306 191.703 21.6768C192.576 22.5581 193.477 23.4151 194.304 24.338C195.205 25.3679 196.222 26.288 197.336 27.0794C197.615 27.2665 197.875 27.4805 198.113 27.7183C198.66 28.2854 198.673 28.9171 198.163 29.5228C197.892 29.8448 198.032 30.1329 198.239 30.3741C198.662 30.8686 199.125 31.3281 199.565 31.8084C200.668 33.0129 200.614 33.3206 199.158 34.0146C198.796 34.1873 198.759 34.3206 198.945 34.7283C199.33 35.5715 200.418 36.0196 200.282 37.1489C200.27 37.2457 200.387 37.3809 200.475 37.4637C201.005 37.9568 201.359 38.5852 201.776 39.1624C206.774 46.07 210.132 53.614 210.862 62.2378C211.125 65.3385 211.566 68.4607 212.649 71.3896C213.359 73.3101 213.352 75.2465 213.469 77.2033C213.49 77.5487 213.566 77.8234 213.843 78.0216C214.271 78.328 214.29 78.6801 214.018 79.1076C213.849 79.3726 213.688 79.6659 213.684 79.9853C213.675 80.9296 213.362 81.7008 212.576 82.2692C212.404 82.3935 212.3 82.6404 212.212 82.8508C211.695 84.099 211.438 85.44 211.454 86.7917C211.455 86.9504 211.404 87.1519 211.618 87.2246C211.834 87.2981 211.978 87.1813 212.08 86.9991C212.352 86.509 212.821 86.3048 213.347 86.085C213.304 87.0315 212.884 87.6549 212.055 87.9662C211.511 88.1702 211.308 88.506 211.293 89.1043C211.229 90.9188 211.477 92.7308 212.028 94.4603C212.862 97.0269 214.229 99.3197 215.661 101.578C218.117 105.449 220.673 109.261 222.706 113.386C223.411 114.817 224.192 116.218 224.598 117.781C225.608 121.661 223.779 125.182 220.044 126.529C218.822 126.97 217.589 127.382 216.372 127.835C214.494 128.536 213.245 129.816 212.782 131.82C212.465 133.094 212.531 134.434 212.972 135.67C213.493 137.125 212.767 138.941 211.418 139.657C211.005 139.876 210.6 140.058 210.543 140.624C210.518 140.873 210.257 141.03 210.039 141.161C209.279 141.617 208.452 141.888 207.577 141.713C206.906 141.578 206.342 141.721 205.775 142.037C205.388 142.254 204.984 142.45 204.521 142.305C204.244 142.218 204.006 142.221 203.923 142.548C203.849 142.838 204.009 143.022 204.263 143.148C204.455 143.238 204.669 143.27 204.878 143.24C205.83 143.134 206.517 143.582 207.139 144.244C207.884 145.037 208.258 146.011 208.575 147.019C208.611 147.134 208.651 147.294 208.601 147.383C208.223 148.046 208.332 148.779 208.282 149.486C208.187 150.827 207.569 151.747 206.259 152.15C203.837 152.894 202.784 154.685 202.51 157.085C202.316 158.785 202.422 160.497 202.284 162.199C202.1 164.473 201.706 166.686 200.312 168.564C198.453 171.069 195.845 172.379 192.891 173.088C190.907 173.565 188.899 173.493 186.882 173.359C184.434 173.197 181.985 173.066 179.582 172.513C176.346 171.769 173.376 170.357 170.431 168.875C168.84 168.074 167.277 167.212 165.609 166.572C163.117 165.616 160.977 166.095 159.178 168.112C157.575 169.908 156.622 172.053 155.824 174.28C154.753 177.269 153.862 180.319 152.73 183.29C150.942 187.986 148.947 192.606 147.441 197.408C147.083 198.551 146.735 199.703 146.733 200.923C146.733 201.432 146.93 201.752 147.433 201.903C148.436 202.213 149.4 202.637 150.307 203.165C154.011 205.272 157.82 207.176 161.611 209.113C166.153 211.434 169.885 214.664 172.786 218.885C175.789 223.254 178.197 227.952 180.358 232.772C186.759 247.05 192.961 261.414 198.46 276.074C199.051 277.649 199.714 279.196 200.327 280.763C200.636 281.55 200.561 281.646 199.744 281.646C199.324 281.647 198.904 281.641 198.485 281.641C171.606 281.662 144.728 281.682 117.849 281.701C96.6571 281.705 75.4647 281.855 54.273 281.617C52.9317 281.602 51.5903 281.515 50.2511 281.428C49.771 281.397 49.1112 281.403 49.6687 280.589C49.7306 280.499 49.6953 280.342 49.7058 280.216C50.1251 275.155 50.6222 270.102 51.2295 265.061C51.8946 259.541 52.65 254.032 53.5945 248.552C54.5138 243.219 55.5764 237.919 57.1076 232.722C58.1942 229.034 59.7771 225.63 62.1249 222.546C65.4885 218.128 68.5624 213.498 71.5195 208.792C75.8009 201.98 79.3272 194.853 80.7291 186.819C81.2372 183.949 82.3316 181.216 83.9433 178.791C84.772 177.526 85.5122 176.2 86.2451 174.875C87.3137 172.943 88.3468 170.998 88.8685 168.817C90.4352 162.267 91.8759 155.69 93.2467 149.096C93.9747 145.593 94.9079 142.13 95.0692 138.53C95.2004 135.601 94.8438 132.809 92.9621 130.403C92.6688 130.028 92.4701 129.571 92.2653 129.135C91.0247 126.488 91.6243 127.077 89.0955 126.179C85.6126 124.942 82.9474 122.539 80.522 119.838C79.322 118.502 78.157 117.095 77.6827 115.338C77.0023 112.817 75.8025 110.576 74.4325 108.398C73.4252 106.796 72.406 105.201 71.5866 103.487C69.5947 99.321 68.8626 94.8462 68.3063 90.3168C68.0822 88.4927 68.25 86.5944 67.4024 84.8716C67.3101 84.684 67.3991 84.4913 67.4557 84.3181C67.5796 83.9382 67.4831 83.7196 67.0684 83.7745C66.5913 83.8376 66.4593 83.5741 66.3611 83.1812C66.1725 82.4264 65.9279 81.6856 65.7393 80.9307C65.0845 78.3099 64.4406 75.6858 65.0277 72.9524C65.113 72.5556 64.9513 72.441 64.595 72.5863C62.9493 73.2574 61.2505 73.8302 60.1847 75.4311C59.6013 76.3075 58.8728 77.0747 58.148 77.8374C56.5342 79.5357 54.6489 80.7655 52.3385 81.2966C51.293 81.5258 50.2834 81.8966 49.3373 82.399C48.2472 82.9908 47.0639 83.2368 45.8327 83.2864C42.9488 83.4025 40.2172 82.6956 37.5519 81.6944C34.7105 80.6271 32.2031 79.093 30.5204 76.4345C30.0955 75.749 29.4938 75.1919 28.7792 74.8221C28.5237 74.6922 28.4336 74.4613 28.3537 74.2246C27.3771 71.3343 26.6463 68.4063 26.957 65.3097C27.0157 64.7244 27.0698 64.1201 26.9879 63.5444C26.911 63.0046 26.8407 62.5771 27.4259 62.2815C27.6411 62.1728 27.7106 61.8745 27.771 61.6265C27.9913 60.7427 27.9668 59.8152 27.7001 58.9444C27.5967 58.6027 27.4874 58.194 27.0733 58.1569C26.7022 58.1237 26.511 58.476 26.3244 58.7567C26.2486 58.8828 26.1797 59.0129 26.118 59.1465C25.6704 60.0113 25.412 60.9447 25.1309 61.8707C25.0632 62.0936 25.0663 62.3684 24.7328 62.547C24.613 62.0198 24.1969 61.8502 23.7913 61.678C23.3904 61.5078 23.3013 61.2633 23.5413 60.8903C23.886 60.3369 24.1847 59.7559 24.4344 59.1532C24.8926 58.0927 25.3166 57.019 25.9908 56.0604C26.354 55.5439 26.2285 54.9435 25.8553 54.4706C25.4923 54.0106 25.2855 53.4954 25.1026 52.9575C24.7223 51.839 24.5124 50.6779 24.244 49.5307C23.9764 48.3871 24.0468 47.177 23.5329 46.0815C23.0416 45.0344 22.6001 43.9663 22.4883 42.7951Z" fill="black"/>
</g>
<mask id="mask1_417_7850" style="mask-type:alpha" maskUnits="userSpaceOnUse" x="22" y="0" width="203" height="282">
<path d="M22.4883 42.7952V42.5422C22.5257 42.4013 22.5729 42.2621 22.599 42.119C22.9466 40.2177 23.7665 38.5573 25.2019 37.2604C26.8382 35.782 28.8452 35.0582 30.9555 34.5819C31.7962 34.3994 32.6501 34.2847 33.509 34.2387C33.8569 34.2172 34.2717 33.9131 33.979 33.6818C33.4613 33.2863 33.0259 32.7926 32.6975 32.2287C32.651 32.1479 32.422 32.1839 32.4701 32.003C32.5096 31.8541 32.668 31.865 32.7864 31.8752C33.527 31.9393 33.8443 31.4903 34.0102 30.8625C34.0853 30.578 34.1538 30.2904 34.2016 30.0003C34.5613 27.8186 35.5166 25.9801 37.2383 24.5615C37.8701 24.0409 38.4488 23.4557 39.0707 22.9225C39.6959 22.3908 40.4012 21.9622 41.1602 21.6528C42.9148 20.9259 44.6908 21.0116 46.4543 21.5663C47.4144 21.8683 48.2571 21.764 49.0769 21.1903C49.3824 20.9765 49.7294 20.7609 50.0851 20.694C50.7864 20.5574 51.4369 20.2299 51.9657 19.7474C52.3036 19.453 52.7421 19.2996 53.1244 19.584C53.787 20.0772 54.5539 20.2695 55.3123 20.5056C55.7526 20.6427 56.1578 20.8521 56.1996 21.37C56.2402 21.8727 56.555 21.9992 56.9581 22.0389C57.9386 22.1354 58.9197 22.2287 59.9017 22.3082C60.7522 22.3771 61.5973 22.51 62.2267 23.1318C63.4246 24.3152 64.4319 25.6629 64.6516 27.3801C64.9493 29.7066 65.8952 31.8189 66.6234 34.0046C66.7358 34.3422 66.8915 34.7208 67.3242 34.7199C68.0148 34.7184 68.5615 35.0411 69.1248 35.379C69.7763 35.7697 70.16 35.6774 70.6604 35.0895C70.7694 34.9614 70.866 34.8228 70.9722 34.6923C71.5087 34.0335 72.1941 34.0552 72.6916 34.7454C73.3662 35.6814 73.4477 35.6993 74.4375 35.077C74.6679 34.9321 74.8893 34.7709 75.1048 34.604C76.7193 33.3534 78.2031 31.9529 79.6767 30.543C85.5119 24.9594 91.1875 19.2128 96.8989 13.5026C97.6715 12.7302 98.4686 11.977 99.3045 11.2752C104.024 7.3131 109.345 4.42239 115.145 2.41148C116.967 1.7797 118.822 1.12575 120.783 1.32163C122.156 1.45878 123.396 1.25582 124.706 0.822028C128.131 -0.311492 131.659 -0.0708005 135.176 0.350952C136.701 0.533815 138.196 1.09675 139.771 0.659409C140.078 0.574229 140.445 0.639466 140.771 0.703233C141.7 0.864993 142.642 0.950249 143.585 0.958157C146.51 1.04599 149.397 1.34792 152.153 2.44405C154.337 3.31266 156.571 4.05173 158.873 4.51716C160.101 4.76547 161.137 5.59889 162.436 5.58758C162.687 5.58539 162.924 5.76326 163.075 5.96037C163.378 6.3544 163.797 6.51041 164.242 6.64867C167.583 7.68762 170.924 8.72821 174.264 9.77043C174.823 9.94399 175.384 10.0763 175.726 10.6418C175.833 10.819 176.085 10.9337 176.294 11.019C178.99 12.1392 181.529 13.6075 183.847 15.387C184.455 15.8464 185.115 16.2577 185.892 16.2887C186.619 16.3177 187.045 16.707 187.395 17.2655C187.608 17.6041 187.828 17.9382 188.029 18.2835C188.368 18.8659 188.8 19.3232 189.472 19.5192C189.885 19.6299 190.238 19.898 190.457 20.2665C190.778 20.8297 191.261 21.2307 191.703 21.6769C192.576 22.5582 193.477 23.4152 194.304 24.3382C195.204 25.368 196.222 26.2881 197.336 27.0795C197.615 27.2666 197.875 27.4806 198.113 27.7184C198.66 28.2855 198.673 28.9172 198.163 29.523C197.892 29.8449 198.032 30.133 198.239 30.3742C198.662 30.8687 199.125 31.3283 199.565 31.8085C200.668 33.013 200.614 33.3208 199.158 34.0147C198.796 34.1874 198.759 34.3208 198.945 34.7284C199.33 35.5717 200.418 36.0198 200.282 37.149C200.27 37.2458 200.387 37.381 200.475 37.4638C201.005 37.9569 201.359 38.5853 201.776 39.1625C206.774 46.0701 210.132 53.6142 210.862 62.2379C211.125 65.3387 211.566 68.4608 212.649 71.3897C213.359 73.3102 213.351 75.2467 213.469 77.2035C213.49 77.5488 213.566 77.8235 213.843 78.0217C214.271 78.3281 214.29 78.6802 214.018 79.1078C213.849 79.3727 213.688 79.666 213.684 79.9854C213.675 80.9297 213.362 81.7009 212.576 82.2693C212.404 82.3937 212.3 82.6405 212.212 82.851C211.695 84.0991 211.437 85.4401 211.454 86.7918C211.455 86.9506 211.404 87.152 211.618 87.2247C211.834 87.2983 211.978 87.1814 212.08 86.9992C212.352 86.5091 212.821 86.3049 213.347 86.0851C213.304 87.0316 212.884 87.655 212.055 87.9663C211.511 88.1703 211.308 88.5061 211.293 89.1044C211.229 90.919 211.477 92.7309 212.028 94.4604C212.862 97.027 214.229 99.3199 215.661 101.578C218.117 105.449 220.673 109.261 222.706 113.386C223.411 114.817 224.192 116.218 224.598 117.781C225.608 121.662 223.779 125.182 220.044 126.529C218.822 126.97 217.589 127.382 216.372 127.835C214.494 128.536 213.245 129.816 212.782 131.82C212.465 133.094 212.531 134.434 212.972 135.671C213.493 137.125 212.767 138.941 211.418 139.657C211.005 139.876 210.6 140.058 210.543 140.624C210.518 140.873 210.257 141.03 210.039 141.161C209.279 141.617 208.452 141.888 207.577 141.713C206.906 141.578 206.342 141.721 205.775 142.037C205.388 142.254 204.984 142.45 204.521 142.305C204.244 142.218 204.006 142.221 203.923 142.549C203.849 142.839 204.009 143.022 204.263 143.149C204.455 143.238 204.669 143.27 204.878 143.24C205.83 143.134 206.517 143.582 207.139 144.244C207.884 145.038 208.258 146.011 208.575 147.019C208.611 147.134 208.651 147.294 208.601 147.383C208.223 148.046 208.332 148.78 208.282 149.486C208.187 150.827 207.569 151.747 206.259 152.15C203.837 152.894 202.784 154.685 202.51 157.085C202.316 158.785 202.421 160.497 202.284 162.199C202.1 164.473 201.706 166.686 200.312 168.564C198.453 171.069 195.845 172.379 192.891 173.088C190.907 173.565 188.899 173.493 186.882 173.359C184.434 173.197 181.985 173.066 179.582 172.513C176.346 171.769 173.376 170.357 170.431 168.875C168.84 168.074 167.277 167.212 165.609 166.572C163.117 165.616 160.977 166.095 159.178 168.112C157.575 169.908 156.622 172.053 155.824 174.28C154.753 177.269 153.862 180.319 152.73 183.29C150.942 187.986 148.947 192.606 147.441 197.409C147.083 198.551 146.735 199.703 146.733 200.923C146.733 201.432 146.93 201.753 147.433 201.903C148.436 202.213 149.4 202.637 150.307 203.165C154.011 205.272 157.82 207.176 161.611 209.113C166.153 211.434 169.885 214.664 172.786 218.885C175.789 223.254 178.197 227.952 180.358 232.773C186.759 247.05 192.961 261.414 198.46 276.074C199.051 277.649 199.714 279.196 200.327 280.763C200.636 281.55 200.561 281.646 199.744 281.647C199.324 281.647 198.904 281.641 198.485 281.641C171.606 281.662 144.728 281.683 117.849 281.702C96.6571 281.705 75.4647 281.855 54.273 281.617C52.9317 281.602 51.5903 281.515 50.2511 281.428C49.771 281.397 49.1112 281.403 49.6687 280.589C49.7306 280.499 49.6953 280.342 49.7058 280.216C50.1251 275.155 50.6222 270.102 51.2295 265.061C51.8946 259.541 52.65 254.033 53.5945 248.552C54.5138 243.219 55.5764 237.919 57.1076 232.722C58.1942 229.034 59.7771 225.631 62.1249 222.546C65.4885 218.128 68.5624 213.498 71.5195 208.792C75.8009 201.98 79.3272 194.853 80.7291 186.82C81.2372 183.949 82.3316 181.216 83.9433 178.792C84.772 177.527 85.5122 176.2 86.2451 174.875C87.3137 172.944 88.3468 170.998 88.8685 168.817C90.4351 162.267 91.8759 155.69 93.2467 149.096C93.9747 145.593 94.9079 142.131 95.0692 138.53C95.2004 135.601 94.8438 132.809 92.9621 130.403C92.6688 130.028 92.4701 129.571 92.2653 129.135C91.0247 126.489 91.6243 127.077 89.0955 126.179C85.6126 124.942 82.9474 122.539 80.522 119.838C79.322 118.502 78.157 117.095 77.6827 115.338C77.0023 112.817 75.8024 110.576 74.4325 108.398C73.4252 106.796 72.406 105.201 71.5866 103.487C69.5947 99.3211 68.8625 94.8464 68.3063 90.3169C68.0822 88.4928 68.2499 86.5945 67.4024 84.8718C67.3101 84.6841 67.3991 84.4914 67.4556 84.3182C67.5796 83.9383 67.4831 83.7197 67.0684 83.7746C66.5913 83.8377 66.4593 83.5742 66.3611 83.1814C66.1725 82.4265 65.9279 81.6857 65.7393 80.9308C65.0845 78.31 64.4406 75.686 65.0277 72.9526C65.113 72.5557 64.9513 72.4411 64.595 72.5864C62.9493 73.2575 61.2504 73.8304 60.1847 75.4312C59.6013 76.3076 58.8728 77.0748 58.148 77.8375C56.5342 79.5358 54.6489 80.7656 52.3385 81.2967C51.293 81.5259 50.2834 81.8968 49.3373 82.3992C48.2472 82.9909 47.0639 83.2369 45.8327 83.2865C42.9488 83.4026 40.2172 82.6957 37.5519 81.6946C34.7105 80.6272 32.2031 79.0932 30.5204 76.4346C30.0955 75.7492 29.4938 75.192 28.7792 74.8223C28.5237 74.6923 28.4336 74.4614 28.3537 74.2247C27.3771 71.3345 26.6463 68.4065 26.957 65.3098C27.0157 64.7245 27.0698 64.1202 26.9879 63.5445C26.911 63.0047 26.8407 62.5772 27.4259 62.2817C27.6411 62.1729 27.7106 61.8746 27.771 61.6266C27.9913 60.7428 27.9668 59.8153 27.7001 58.9445C27.5967 58.6028 27.4874 58.1941 27.0733 58.1571C26.7022 58.1238 26.511 58.4762 26.3244 58.7568C26.2486 58.8829 26.1797 59.013 26.118 59.1466C25.6704 60.0114 25.412 60.9448 25.1309 61.8708C25.0632 62.0937 25.0663 62.3686 24.7328 62.5471C24.613 62.02 24.1969 61.8503 23.7913 61.6781C23.3904 61.5079 23.3013 61.2634 23.5413 60.8904C23.886 60.337 24.1847 59.756 24.4344 59.1533C24.8926 58.0928 25.3166 57.0191 25.9908 56.0606C26.354 55.5441 26.2285 54.9436 25.8553 54.4707C25.4923 54.0107 25.2855 53.4956 25.1026 52.9577C24.7223 51.8391 24.5124 50.678 24.244 49.5308C23.9764 48.3872 24.0468 47.1771 23.5329 46.0816C23.0416 45.0345 22.6001 43.9664 22.4883 42.7952Z" fill="black"/>
</mask>
<g mask="url(#mask1_417_7850)">
<rect x="-24.4727" y="-30.424" width="291.672" height="275.138" fill="black"/>
</g>
</svg>
