<svg width="68" height="59" viewBox="0 0 68 59" fill="none" xmlns="http://www.w3.org/2000/svg">
<path d="M29.5 1.8748C34.9638 1.87479 40.3048 3.49498 44.8477 6.53048C49.3907 9.56597 52.9315 13.8804 55.0224 18.9283C57.1133 23.9761 57.6603 29.5306 56.5944 34.8894C55.5285 40.2482 52.8974 45.1705 49.034 49.034C43.8532 54.2147 36.8267 57.1252 29.5 57.1252C22.1734 57.1252 15.1468 54.2147 9.96605 49.034C4.78532 43.8532 1.87482 36.8267 1.87482 29.5C1.87482 22.1733 4.78532 15.1468 9.96605 9.96604C12.5253 7.39276 15.5696 5.35264 18.9226 3.96378C22.2756 2.57491 25.8707 1.86489 29.5 1.8748ZM29.5 0C23.6655 0 17.9619 1.73014 13.1107 4.97164C8.25944 8.21314 4.47835 12.8204 2.24557 18.2108C0.0127831 23.6012 -0.571416 29.5327 0.566846 35.2551C1.70511 40.9776 4.51471 46.234 8.64035 50.3596C12.766 54.4853 18.0224 57.2949 23.7448 58.4332C29.4673 59.5714 35.3987 58.9872 40.7892 56.7544C46.1796 54.5217 50.7868 50.7406 54.0283 45.8893C57.2698 41.0381 59 35.3346 59 29.5C59 25.626 58.237 21.79 56.7544 18.2108C55.2719 14.6317 53.099 11.3797 50.3597 8.64036C47.6203 5.90103 44.3683 3.72807 40.7892 2.24556C37.2101 0.763042 33.374 9.23256e-07 29.5 0Z" fill="black"/>
<path d="M67.7622 5.05762L18.0616 49.075L17.7363 21.3002L20.6589 43.1734L67.7622 5.05762Z" fill="#75AD14"/>
<path d="M67.7622 5.05762L20.6589 43.1734L17.7363 21.3002L23.2581 37.381L67.7622 5.05762Z" fill="#88B824"/>
<path d="M67.7622 5.05762L23.2581 37.381L17.7363 21.3002L25.7485 32.0207L67.7622 5.05762Z" fill="#A5CB37"/>
<path d="M33.2295 16.5337C31.7433 15.6217 29.9256 16.0754 28.6114 17.0779C27.9762 17.5567 27.4508 18.166 27.0706 18.8648C26.6904 19.5635 26.4641 20.3355 26.407 21.129C26.2771 22.7727 26.8609 24.6815 28.7515 24.8748C29.3935 24.9242 30.0382 24.8213 30.6329 24.5744C32.4598 23.864 33.8372 22.0985 34.3439 20.2245C34.6961 18.922 34.4601 17.2889 33.2295 16.5337Z" fill="#A5CB37"/>
</svg>
