<svg width="394" height="160" viewBox="0 0 394 160" fill="none" xmlns="http://www.w3.org/2000/svg">
<path d="M79.8685 5.06071C99.7887 5.06071 118.513 12.8162 132.595 26.904C146.676 40.9917 154.438 59.7164 154.438 79.6302C154.438 99.5505 146.683 118.275 132.595 132.357C118.513 146.438 99.7824 154.2 79.8685 154.2C59.9483 154.2 41.2237 146.444 27.1423 132.357C13.0608 118.275 5.29899 99.5441 5.29899 79.6302C5.29899 59.71 13.0545 40.9854 27.1423 26.904C41.2237 12.8162 59.9483 5.06071 79.8685 5.06071ZM79.8685 0C35.891 0 0.238281 35.6527 0.238281 79.6302C0.238281 123.608 35.891 159.26 79.8685 159.26C123.846 159.26 159.499 123.608 159.499 79.6302C159.499 35.6527 123.846 0 79.8685 0Z" fill="black"/>
<path d="M183.151 13.6514L48.9921 132.47L48.1128 57.4961L56.0012 116.542L183.151 13.6514Z" fill="#75AD14"/>
<path d="M183.151 13.6514L56.0012 116.542L48.1128 57.4961L63.0229 100.904L183.151 13.6514Z" fill="#88B824"/>
<path d="M183.151 13.6514L63.0229 100.904L48.1128 57.4961L69.741 86.437L183.151 13.6514Z" fill="#A5CB37"/>
<path d="M89.9334 44.6293C85.9228 42.1685 81.0139 43.3894 77.4651 46.0969C73.9542 48.7727 71.8603 52.6442 71.5124 57.0343C71.1645 61.4688 72.7396 66.6244 77.8383 67.1431C79.5589 67.3202 81.3049 66.9597 82.918 66.3334C87.8522 64.4166 91.5655 59.6533 92.9382 54.5925C93.8934 51.0754 93.2545 46.6662 89.9334 44.6293Z" fill="#A5CB37"/>
<path d="M183.151 56.2373H193.229V108.255H204.678V56.2373H214.939V108.432H219.335V125.076H209.537V116.928H183.158V56.2373H183.151Z" fill="#070022"/>
<path d="M256.336 94.2934V102.359C256.336 112.069 251.205 117.617 241.312 117.617C231.418 117.617 226.288 112.069 226.288 102.359V70.799C226.288 61.0888 231.418 55.541 241.312 55.541C251.205 55.541 256.336 61.0888 256.336 70.799V76.6948H246.809V70.1918C246.809 65.8585 244.791 64.2075 241.59 64.2075C238.389 64.2075 236.371 65.8522 236.371 70.1918V102.966C236.371 107.299 238.389 108.862 241.59 108.862C244.791 108.862 246.809 107.299 246.809 102.966V94.2934H256.336Z" fill="#070022"/>
<path d="M291.324 116.928H281.247V56.2373H313.028V116.928H302.768V64.9038H291.318V116.928H291.324Z" fill="#070022"/>
<path d="M355.254 116.928H345.088L343.348 105.914H330.981L329.242 116.928H319.993L330.254 56.2373H344.999L355.254 116.928ZM332.265 97.6782H341.976L337.124 66.985L332.265 97.6782Z" fill="#070022"/>
<path d="M372.295 116.928H362.218V56.2373H394V116.928H383.739V64.9038H372.289V116.928H372.295Z" fill="#070022"/>
</svg>
